<svg xmlns="http://www.w3.org/2000/svg" viewBox="0 0 24 24" width="24" height="24" fill="none">
  <g fill="#0077B5">
    <path d="M19.004 3H4.996A1.994 1.994 0 0 0 3 4.994v14.012A1.994 1.994 0 0 0 4.996 21h14.008A1.994 1.994 0 0 0 21 19.006V4.994A1.994 1.994 0 0 0 19.004 3zM8.454 17.664H5.998V9.548h2.456v8.116zM7.226 8.548c-.797 0-1.462-.665-1.462-1.49 0-.826.665-1.491 1.462-1.491s1.463.665 1.463 1.49c0 .826-.666 1.49-1.463 1.49zM18.002 17.664h-2.457v-4.56c0-1.091-.021-2.492-1.517-2.492-1.519 0-1.756 1.185-1.756 2.409v4.643h-2.457V9.548h2.357v1.115h.033c.329-.622 1.131-1.278 2.331-1.278 2.491 0 2.953 1.634 2.953 3.753v5.546z"/>
  </g>
</svg>
